<?xml version="1.0" encoding="UTF-8"?>
<svg width="24px" height="22px" viewBox="0 0 24 22" version="1.1" xmlns="http://www.w3.org/2000/svg" xmlns:xlink="http://www.w3.org/1999/xlink">
    <title>heart</title>
    <defs>
        <polygon id="path-1" points="0 0 1440 0 1440 768 0 768"></polygon>
    </defs>
    <g id="Login" stroke="none" stroke-width="1" fill="none" fill-rule="evenodd">
        <g id="Main-Page" transform="translate(-679.000000, -828.000000)">
            <g id="7" opacity="0.9" transform="translate(0.000000, 146.000000)">
                <mask id="mask-2" fill="white">
                    <use xlink:href="#path-1"></use>
                </mask>
                <g id="Mask"></g>
            </g>
            <path d="M697.716599,837.065128 C697.925902,837.276667 698.043111,837.567179 698.043111,837.863333 C698.043111,838.159487 697.925902,838.452821 697.716599,838.661538 C697.510087,838.873077 697.222645,838.991538 696.926831,838.991538 C696.633807,838.991538 696.346365,838.873077 696.140132,838.661538 C695.930829,838.452821 695.81055,838.162308 695.81055,837.863333 C695.81055,837.567179 695.930829,837.276667 696.140132,837.065128 C696.346365,836.85641 696.633807,836.735128 696.926831,836.735128 C697.222645,836.735128 697.510087,836.85641 697.716599,837.065128 M699.064229,835.426128 C699.09995,835.970205 698.692508,836.440385 698.154181,836.476205 C698.132414,836.477615 698.110646,836.478462 698.088879,836.478462 C697.578739,836.478462 697.14925,836.078231 697.115203,835.556154 C697.010552,833.956359 695.976039,833.693769 695.769527,833.657385 C695.235107,833.583487 694.869525,833.086795 694.942642,832.546667 C695.016037,832.006256 695.516689,831.63141 696.051109,831.703897 C697.017808,831.837872 698.892043,832.788103 699.064229,835.426128 M699.336881,838.692846 C695.720131,842.793308 692.425708,845.991205 690.999938,847.337718 C689.575006,845.992333 686.283373,842.797538 682.662996,838.692846 C681.201784,837.036359 680.838156,835.016026 681.665599,833.149974 C682.432763,831.419308 684.076765,830.25641 685.756209,830.25641 C689.086633,830.25641 689.840402,832.774 689.917425,833.069026 C690.040774,833.566564 690.482821,833.923077 690.991287,833.923077 L691.001054,833.923077 C691.508125,833.923077 691.953242,833.566846 692.082172,833.070436 C692.156684,832.783026 692.907383,830.259513 696.243946,830.259513 C697.923111,830.259513 699.567114,831.420718 700.334557,833.151385 C701.161721,835.017436 700.798371,837.036359 699.336881,838.692846 M702.37149,832.227103 C701.233163,829.659308 698.827857,828 696.243946,828 C693.66171,828 691.98673,829.147949 690.999938,830.391513 C690.013146,829.147949 688.338167,828 685.756209,828 C683.172299,828 680.766993,829.659308 679.628386,832.227103 C678.442896,834.900949 678.954432,837.879128 680.996667,840.194487 C685.888489,845.740744 690.211565,849.672821 690.254542,849.711744 C690.466635,849.904103 690.733426,850 690.999938,850 C691.266729,850 691.533241,849.904103 691.745335,849.711744 C691.788311,849.672821 696.111388,845.740744 701.003209,840.194487 C703.045445,837.879128 703.557259,834.900949 702.37149,832.227103" id="heart" fill="#BFC5D1"></path>
        </g>
    </g>
</svg>